# xmcd CD database file
#
# Track frame offsets:
#	183
#	16933
#	32375
#	52698
#	63595
#	76980
#	92365
#	111925
#	131995
#	148270
#	162483
#	176533
#
# Disc length: 2609 seconds
#
# Revision: 0
# Processed by: cddbd v1.4PL0 Copyright (c) Steve Scherf et al.
# Submitted via: CDex 1.51
#
DISCID=980a2f0c
DTITLE=JOE - JOE
DYEAR=1900
DGENRE=Country
TTITLE0=Best of friends
TTITLE1=Lumber lounge
TTITLE2=Long time ago
TTITLE3=Unless you try
TTITLE4=Samedi soir
TTITLE5=Stay the same
TTITLE6=Wanderer
TTITLE7=Do you care
TTITLE8=Dance
TTITLE9=Keep' in it new
TTITLE10=In you
TTITLE11=Someday
EXTD=
EXTT0=
EXTT1=
EXTT2=
EXTT3=
EXTT4=
EXTT5=
EXTT6=
EXTT7=
EXTT8=
EXTT9=
EXTT10=
EXTT11=
PLAYORDER=
